<svg id="Logo_1" data-name="Logo 1" xmlns="http://www.w3.org/2000/svg" viewBox="0 0 319.94 370.56"><defs><style>.cls-1{fill:#ffa400;}.cls-2{fill:#323232;}</style></defs><path class="cls-1" d="M626.38,344.22c13,12.7,20.59,27.8,20.59,44C647,433.38,588.26,470,515.85,470s-131.13-36.61-131.13-81.77c0-16.2,7.56-31.3,20.59-44-22.68,16.13-36.43,37.26-36.43,60.4,0,50.62,65.8,105.68,147,105.68s147-55.06,147-105.68C662.82,381.48,649.06,360.35,626.38,344.22Z" transform="translate(-368.88 -139.74)"/><polygon class="cls-2" points="104.44 191.29 104.44 147.32 44.23 189.89 44.23 238.72 104.44 191.29"/><path class="cls-2" d="M473.31,451.9V379.64l-60.2,30.93v14.77C428.53,437.46,449.36,446.78,473.31,451.9Z" transform="translate(-368.88 -139.74)"/><polygon class="cls-2" points="122.18 177.31 168.93 211.17 177.07 204.75 177.07 72.29 116.87 114.86 116.87 181.5 122.18 177.31"/><path class="cls-2" d="M515.85,456.31a208.84,208.84,0,0,0,30.1-2.17V403.72l-7,5.51-50.48-37.39-2.74,1.41v80.89A208.87,208.87,0,0,0,515.85,456.31Z" transform="translate(-368.88 -139.74)"/><path class="cls-2" d="M618.59,425.34V346.43l-60.21,47.49v58C582.34,446.78,603.16,437.46,618.59,425.34Z" transform="translate(-368.88 -139.74)"/><polygon class="cls-2" points="249.71 147.45 249.71 146.71 235.2 127.1 249.71 127.1 249.71 0 189.51 42.57 189.51 194.94 249.71 147.45"/><polygon class="cls-1" points="38.3 258.83 122.45 190.65 169.2 224.51 264.75 149.14 256.31 137.74 319.94 137.74 169.88 256.1 120.63 219.61 38.3 258.83"/></svg>