<svg id="characters" xmlns="http://www.w3.org/2000/svg" viewBox="0 0 1551.29 1251.47"><defs><style>.cls-1{fill:#fce5d6;}.cls-2{fill:#eeccba;}.cls-3{fill:#606172;}.cls-4{fill:#4d4d4d;}.cls-5{fill:#e74854;}.cls-6{fill:#ba272d;}.cls-7{fill:#656565;}.cls-8{fill:#fff;}.cls-9{fill:#e5936f;}.cls-10{fill:#d97f64;}.cls-11{fill:#e1ede2;}.cls-12{fill:#6b4e4e;}.cls-13{fill:#352424;}.cls-14{fill:#aed5ff;}.cls-15{fill:#6e8ba9;}.cls-16{fill:#60150b;}.cls-17{fill:#cf5d4c;}.cls-18{fill:#1a1a1a;}.cls-19{fill:#da8260;}.cls-20{fill:#abb3bb;}.cls-21{fill:#7f8b98;}.cls-22{fill:#973811;}.cls-23{fill:#5d6c7d;}.cls-24{fill:#f4b558;}.cls-25{fill:#d59943;}.cls-26{fill:#d7cfd3;}.cls-27{fill:#e7956f;}.cls-28{fill:#ede7dd;}.cls-29{fill:#a14b28;}.cls-30{fill:#82c6ff;}.cls-31{fill:#d37559;}.cls-32{fill:#59485a;}.cls-33{fill:#d15d4c;}</style></defs><path class="cls-1" d="M204.5,1303.36l1434.9,4.46s39.53-646.13,39.53-820.62-31.62-172.67-51.39-175.7,3.29-100.18-25-136.28-438.9-15.75-533.41,5.83-271.62-19-346.74-34.7-290.27-15.58-318-15.17-124.43-4.76-183.41-.12-87.6,88.5-91.55,338.31-4,342.37,29.65,363.83S204.5,1303.36,204.5,1303.36Z" transform="translate(-127.64 -129.12)"/><path class="cls-2" d="M696,307.11c0,1.87.08,3.74.09,5.61.24,51.19.29,172,.3,223.15,0,51.78,0,185.57,0,237.35l0,155.21q0,76.56,0,153.12,0,37.59,0,75.18c0,24.62.53,49.32-.47,73.93a1.68,1.68,0,0,1-3.35,0c-.25-6.18-.36-12.35-.41-18.53-.42-49.9-.07-99.82-.08-149.72q0-76.76,0-153.5l0-155.33c0-51.74,0-185.49,0-237.23,0-46.52-.68-162.73.37-209.24H647.19v963.54h654.17V307.11Zm588.9,462.7H713.44V556.53H1284.9Zm0-237.56H713.44V331.39H1284.9Z" transform="translate(-127.64 -129.12)"/><path class="cls-1" d="M980,1232.25H750.05a20.77,20.77,0,0,1-20.74-20.75V813.14a20.77,20.77,0,0,1,20.74-20.75H980a20.78,20.78,0,0,1,20.75,20.75V1211.5A20.78,20.78,0,0,1,980,1232.25ZM750.05,795.79a17.36,17.36,0,0,0-17.34,17.35V1211.5a17.36,17.36,0,0,0,17.34,17.34H980a17.36,17.36,0,0,0,17.34-17.34V813.14A17.36,17.36,0,0,0,980,795.79Z" transform="translate(-127.64 -129.12)"/><path class="cls-1" d="M1257.63,1232.25H1027.74A20.78,20.78,0,0,1,1007,1211.5V813.14a20.78,20.78,0,0,1,20.75-20.75h229.89a20.78,20.78,0,0,1,20.75,20.75V1211.5A20.78,20.78,0,0,1,1257.63,1232.25ZM1027.74,795.79a17.37,17.37,0,0,0-17.35,17.35V1211.5a17.36,17.36,0,0,0,17.35,17.34h229.89A17.37,17.37,0,0,0,1275,1211.5V813.14a17.37,17.37,0,0,0-17.35-17.35Z" transform="translate(-127.64 -129.12)"/><rect class="cls-1" x="833.63" y="712.5" width="13.75" height="89.13" rx="5.07"/><rect class="cls-1" x="906.62" y="712.5" width="13.75" height="89.13" rx="5.07"/><path class="cls-2" d="M1297.64,1265.44s.72,24.82,0,35.6c0,0-13.94,5-24.69,2.53l-14.56-38.13Z" transform="translate(-127.64 -129.12)"/><path class="cls-2" d="M1261.92,1265.44s.72,24.82,0,35.6c0,0-13.94,5-24.69,2.53l-14.57-38.13Z" transform="translate(-127.64 -129.12)"/><path class="cls-2" d="M736.38,1265.44s-.72,24.82,0,35.6c0,0,13.94,5,24.69,2.53l14.57-38.13Z" transform="translate(-127.64 -129.12)"/><path class="cls-2" d="M647.51,1265.44s-.72,24.82,0,35.6c0,0,13.94,5,24.69,2.53l14.57-38.13Z" transform="translate(-127.64 -129.12)"/><path class="cls-2" d="M867.83,761.09v17.73h411.06V761.09h-.41q.55-12.15.9-24.32c2-25,2.72-87.27,1.18-112.15l.47-10a2,2,0,0,0-2-2q-28.62,1.61-57.08,5a2.07,2.07,0,0,0-1.9,1.45,44.38,44.38,0,0,0-1.86,9.68c-16.64.43-33.27.27-49.92-.13a1.85,1.85,0,0,0-1.61.93,13,13,0,0,0-1.35,4.78c-9.3.12-17.92.27-24.93.42.79-5.29,3.52-21.55,2.88-22.18-1.16-1.17-19.12-5.92-21.18-2.58-3.61,5.85-4.3,20.14-6.19,20.46-.49.08-3,.27-3-1.63-.28-5.68,3-18.93,3-20.46s-18.48-4.24-19.43-1.2-1.57,11.87-3.07,15.91c-.56,1.48-4.58.66-5,.67-2.3.06,3.52-16.55,1.2-17.13-7.75-1.39-26.44-1.89-27.63,1.75s-10.17,26.74-10.17,26.74l-73.15,1.22s0-7.32-1.22-8.54c-.61-.61-16.45-.61-32.76-.3-1.58,0-3.17-7.44-4.75-7.4-14.67.32-28.55.87-30.75,1.42-1.1.28-3,6-5.16,14.58h0s-.78-7.9-3.71-8.88-9.79-.48-14.19,0S879.72,638,879.72,638l-3.56,123.07Zm215.34-148c-.34,1.81-.94,2.13-2.7,2.11-.66,0-5.41-.78-6.08-.79-.3,0-4.18-.33-4.94-1.53a2.42,2.42,0,0,1,.87-3.3h0a44.53,44.53,0,0,1,6.64.5c1.67.26,5.23.37,6.2,2A1.46,1.46,0,0,1,1083.17,613.07Zm53.62,9.43c-1.63,1-4.27-.49-6-.75a38.69,38.69,0,0,1-5.87-1.1c-1.43-.47-.93-3.37.46-3.83,1.83-.61,4.28.57,6.13,1s5,0,5.89,1.82C1137.69,620.31,1137.42,622.12,1136.79,622.5Zm109.92-1c0-3.31,16.07-3.31,16.07,0v130.2c0,3.32-16.07,3.32-16.07,0Zm-36,130.71c2.51-6.91,3.19-14.29,4.1-21.53.87-6.92,2.29-13.72,3.75-20.53,3.45-16.13,7.29-69.28,7.14-85.87,0-3.32,5.12-3.31,5.15,0,.15,16.43-3.52,69.5-6.95,85.47-1.72,8-3.31,15.91-4.32,24-.83,6.68-1.6,13.47-3.9,19.83C1214.53,756.64,1209.56,755.3,1210.69,752.18Zm-25-3.57c5.87-26.28,16.1-88.31,21.43-114.72.66-3.25,9.59-1.87,8.93,1.36-5.33,26.42-15.56,88.45-21.43,114.73C1193.9,753.21,1185,751.84,1185.69,748.61Zm-11.35-1.23a.72.72,0,0,1,.31-.29c0-.08,0-.18.07-.3a21.58,21.58,0,0,1,1-3c1-2.92,16.64-97.27,20.67-110.34,1-3.16,5.94-1.81,5,1.36-4.43,14.4-16.77,97.72-19.37,106.23-.66,2.14-2,10.27-5,10.69C1174.25,752.15,1172.85,748.78,1174.34,747.38Zm-20,3.21c8.29-26,12.32-90,17.85-116.7.68-3.25,5.64-1.87,5,1.36-5.53,26.68-9.55,90.69-17.85,116.71C1158.31,755.11,1153.34,753.75,1154.35,750.59Zm-26.59-2.38c4.67-22.78,7.93-82.76,12.3-105.6.63-3.25,19.48-1.86,18.86,1.37-4.37,22.84-7.63,82.82-12.3,105.6C1146,752.83,1127.1,751.45,1127.76,748.21Zm-5-124.39c1.59-1.62,3.38-.8,5.31-.35s5.34,1.37,6.94,2.44c.83.56-.32,3.07-1.47,3.3-2.23.46-4.93-.89-7.14-1.16C1120.6,627.25,1121.6,625,1122.79,623.82Zm-5.12,118.79c-2.66,1.19-6.24-1-9.09-1.15-3.08-.22-3-5.13,0-4.75a30.12,30.12,0,0,1,8.94,2.54C1118.1,739.54,1118.28,742.34,1117.67,742.61Zm-10.92,3.16c3.44,1.43,7,.48,9.94,2.84.28.22-.34,2.38-.61,2.48-3.35,1.35-7.25.4-10.58-.82C1102.66,749.24,1104,744.63,1106.75,745.77ZM1079,741.36c3.11-8.27,17.35-103.74,19.24-122.43a2.62,2.62,0,0,1,3.88-2.23c3.1,1.46,6.66,2.95,6.63,3.24-1.1,12.53-6.39,71.18-8.44,83.58a376.76,376.76,0,0,1-8.5,40.06c-.55,2-8.12,1.55-11.13.74A2.41,2.41,0,0,1,1079,741.36Zm-9.81-123.88c2-.91,4.61-.53,6.69-.27,2.38.3,6.43.55,6.33,2.09,0,.79-.46,3.32-1,3.23a44.34,44.34,0,0,0-6.07-.5,25,25,0,0,1-5.38-.49C1068,621.1,1067.44,618.31,1069.21,617.48Zm-16.17,122c-2.7-.86-1.93-4.34.63-4.66,1.43-.17,3.36.45,4.76.74a13.68,13.68,0,0,1,4.45,1.49c1.13.68.69,3.54-.5,3.65A51.19,51.19,0,0,1,1053,739.44Zm-5.16,5.77c2.07.07,4.14.74,6.27.82a32.69,32.69,0,0,1,6.85.59c.65.16.14,3.13-.46,3.46-2.39,1.28-4.41-.2-7.09.15-2.26.29-5.47.78-7.25-1A2.38,2.38,0,0,1,1047.88,745.21Zm-24.36,9.38,24.56-114.66c.69-2.44,10.36-1.41,9.74,1l-24.1,114.79C1032.73,758.36,1022.61,757.31,1023.52,754.59Zm-22.46,0c4.46-25.41,11.11-88.59,16.63-113.79.56-2.58,9.08-.44,8.53,2.13-5.34,25.24-10,87.72-16.39,112.71C1009.19,758.17,1000.63,757.07,1001.06,754.62Zm-22.84-.55c3.84-21,8.07-78.79,12.13-99.7.51-2.63,8.47-1.51,8,1.1-4,20.93-7.83,78.85-12,99.73C985.75,757.9,977.73,756.73,978.22,754.07Zm-21.53-2c2.9-12.42,13.07-89,16.59-101.22,1.11-3.85,6.69-3.2,6.09,1-1.77,12.58-10.59,89.29-14.87,101.26C963.64,755.5,956.1,754.57,956.69,752.05Zm-27.36,2.09c5.58-26.62,11.44-90.09,16.35-116.85.52-2.84,18-1.63,17.49,1.19-4.74,26.71-9.93,90.47-16.73,116.75C945.77,757.79,928.79,756.69,929.33,754.14ZM898.44,752c5.65-25.95,11.17-88.89,17.13-114.78.66-2.85,17.9-1.63,17.3,1.21-5.5,26-11.43,88.83-17.24,114.75C915,756,897.84,754.81,898.44,752Z" transform="translate(-127.64 -129.12)"/><path class="cls-2" d="M720.24,774.18l150.61-3.48c.54-5.94,2.92-22.68-3.79-25.13-4.73-1.74-145.87-1.74-146.47-.33a16.83,16.83,0,0,0-.94,7.1s75.45-4.78,76.44-1.25,1.17,11.29-.75,13.1-75.47,1.23-75.47,1.23Z" transform="translate(-127.64 -129.12)"/><path class="cls-2" d="M713.47,747.16,864,744.31c.54-5.95,3.15-21.56-3.56-24-4.73-1.74-145.88-1.74-146.47-.33a16.87,16.87,0,0,0-.94,7.11s75.45-4.78,76.44-1.25,1.17,11.28-.76,13.09-75.46,1.23-75.46,1.23Z" transform="translate(-127.64 -129.12)"/><path class="cls-2" d="M1047.16,743.77l150.52,2.85c.54,6,3.16,21.57-3.55,24-4.74,1.73-145.88,1.73-146.48.33a16.79,16.79,0,0,1-.93-7.11s75.44,4.78,76.43,1.25,1.17-11.29-.75-13.09-75.47-1.24-75.47-1.24Z" transform="translate(-127.64 -129.12)"/><path class="cls-2" d="M1026.12,495.08v-4.24h-9c5.41-13.52-7.64-24.35-7.64-24.35h13.13V455.62h-65c-6.31-9.08-.9-103.36-.9-103.36h65.9v-6.32L910,346.27c-3.71,0-4,10.84-4,10.84l-60.29-.34s-.63-11.52-2.45-12a13.31,13.31,0,0,0-5.23,0c-.91.23-.69,5.46-.69,5.46s-1.13-3.87-3.18-4.77-7.29-.46-9.34-.69-1.13,3-1.13,3-1.82-3.64-7.29-3.41-5,1.36-5,1.36-2.73-4.78-6.14-5-55.77-1.13-55.77-1.13l-2,5.46c-.68-1.37-2.28-3.41-14-2.73s-10.11,5.46-10.11,5.46l2.28,7.48a7.13,7.13,0,0,0-1.82-1.56c-1.14-.68-7.06-1.59-14.35-1.14s-5.37,2.7-5.37,2.7l29.37,182.95H1015.3c4.51-11.28.9-23,.9-23h9.92v-6.31H951.28c-4.51-5.45.9-13.75.9-13.75ZM770.81,526.13c-2.64-5.31-18.75-178.34-19-180.65s13.33-3.25,16.69.64,21.36,179.59,21.36,179.59C790.52,529.23,773.45,531.44,770.81,526.13Zm29.3-1.36c-.83-2.22-5.83-38.88-8.33-49.62S781.5,349.73,781,346.68s11.58-3.61,14.64-.56,19.72,178.1,19.72,178.1C815.7,526,801,527,800.11,524.77Zm47.77.94c-1.94.94-7.5,0-7.5,0L826.5,350.84c.27-2.22,6.38-1.39,6.38-1.39S849.83,524.77,847.88,525.71Zm18.31,0S850.1,447,853,446.45s9.85.56,11.1,1.11,14.66,78,14.66,78Zm68-57s5.55,11.67,3.33,21.11H903.8s3.18-16.11-5.71-21.11Zm3.39,64.13-39.44-.7c5.55-6,0-13.69,0-13.69h41.66C944.25,528.21,937.59,532.83,937.59,532.83Z" transform="translate(-127.64 -129.12)"/><path class="cls-2" d="M1033.29,504.77l150.52,2.85c.53,6,3.15,21.57-3.56,24-4.73,1.74-145.88,1.74-146.48.34a17,17,0,0,1-.93-7.11s75.45,4.77,76.44,1.25,1.17-11.29-.76-13.1-75.46-1.23-75.46-1.23Z" transform="translate(-127.64 -129.12)"/><path class="cls-2" d="M1067.2,450.31l150.52,2.85c.53,5.95,3.15,50.51-3.56,53-4.73,1.74-145.88,1.74-146.47.33a16.87,16.87,0,0,1-.94-7.11s75.45,4.78,76.44,1.25,1.17-40.23-.76-42-75.46-1.24-75.46-1.24Z" transform="translate(-127.64 -129.12)"/><path class="cls-2" d="M1031.67,395.15,1270.5,398c.54,5.95,3.15,50.52-3.55,53-4.74,1.74-234.2,1.74-234.8.33a16.92,16.92,0,0,1-.93-7.1s75.45,4.77,76.44,1.25,1.17-40.24-.76-42-75.46-1.23-75.46-1.23Z" transform="translate(-127.64 -129.12)"/><path class="cls-2" d="M1280.92,398.05l-238.84-2.85c-.53-5.95-3.15-50.51,3.56-53,4.74-1.73,234.19-1.73,234.79-.33a16.79,16.79,0,0,1,.93,7.11s-75.44-4.78-76.43-1.25-1.17,40.23.75,42,75.47,1.23,75.47,1.23Z" transform="translate(-127.64 -129.12)"/><ellipse class="cls-3" cx="585.11" cy="1183.99" rx="309.62" ry="12.33"/><ellipse class="cls-3" cx="1073" cy="1239.14" rx="235.69" ry="12.33"/><path class="cls-4" d="M741.54,945.92h-.09l-4.28,0c-58.8-.55-87.49-2-93-4.64-2.36-1.13-6.29-3-24-61.65-8.56-28.31-16.25-56.52-16.32-56.81l6.56-1.78c12,44.17,31.35,108.45,36.94,114.2,3.6,1.44,22.36,3.24,89.92,3.87l4.3,0c.63-.23,7.37-4,15.49-59.27,4.27-29.08,6.77-58,6.79-58.25l6.79.58c0,.3-2.66,30.65-7.13,60.59C755.19,938.14,748,945.92,741.54,945.92Zm-94.12-10.61Z" transform="translate(-127.64 -129.12)"/><path class="cls-5" d="M602.82,834s190.55,1.11,211.74,0,12.76-35.69-4.77-40.15-219.39-7.81-227.19-5.58S584,833.9,602.82,834Z" transform="translate(-127.64 -129.12)"/><path class="cls-6" d="M810,809.4a32.72,32.72,0,0,0-3.15-6.82c-1.41-2.15-3.4-3-5.79-3.72-10.38-3-21.52-3.1-32.22-3.92-2.19-.17-2.17,3.24,0,3.4,9.72.75,19.74.92,29.25,3.26,2,.5,4.55.85,5.82,2.69a27.81,27.81,0,0,1,2.9,6.26,44.29,44.29,0,0,1,2.6,13.86c.06,2.19,3.46,2.2,3.4,0A47.21,47.21,0,0,0,810,809.4Z" transform="translate(-127.64 -129.12)"/><path class="cls-5" d="M500.94,940.64C464.83,936.41,352,622.62,362.45,593s207.38-31.66,257.2,6.42,117,287.18,142.51,289.5,62.56-1.16,66,19.7,4.12,31.29-8.11,32S537.05,944.87,500.94,940.64Z" transform="translate(-127.64 -129.12)"/><path class="cls-6" d="M634.59,900.32H523a2.27,2.27,0,0,1-1.19-.33c-.77-.47-19-12.11-40.73-61.35C472,818,461.61,788.33,450.66,757c-23.38-67-49.87-142.83-72.86-155.57a2.27,2.27,0,0,1,2.2-4C404.5,611,431.3,687.76,455,755.48c10.91,31.27,21.23,60.8,30.3,81.33,19.22,43.51,35.49,56.8,38.47,59H634.59a2.27,2.27,0,1,1,0,4.53Z" transform="translate(-127.64 -129.12)"/><path class="cls-4" d="M679.32,942.52h-123s-5.79,37.32,9.27,43.46c9.74,4,35.34,4.23,52.21,3.92,16.86.31,42.47.05,52.21-3.92C685.11,979.84,679.32,942.52,679.32,942.52Z" transform="translate(-127.64 -129.12)"/><rect class="cls-7" x="468.44" y="860.88" width="40.38" height="168.86"/><path class="cls-4" d="M607.74,1026.27c9.49-2.45,19.08-4.48,28.71-6.29V990H596.08v39.56Q601.87,1027.79,607.74,1026.27Z" transform="translate(-127.64 -129.12)"/><path class="cls-4" d="M611.5,1158.86s-13.89-2.15-13.37,9.33,0,14.62,0,14.62l-49.79,56.91v50.79c0,11,15.87,9.75,16.1,2.16.39-13.12,0-41.7,0-41.7l67.25-54.58v-37.53Z" transform="translate(-127.64 -129.12)"/><path class="cls-7" d="M617,1158.86s13.89-2.15,13.36,9.33,0,14.62,0,14.62L710,1239.72v50.79c0,11-15.87,9.75-16.1,2.16-.39-13.12,0-41.7,0-41.7l-97.07-54.58v-37.53Z" transform="translate(-127.64 -129.12)"/><circle class="cls-7" cx="575.82" cy="1160.24" r="26.25"/><path class="cls-4" d="M716.2,1273.58a21.81,21.81,0,0,0-10.43-7.58c-2.07-.71-3,2.58-.9,3.28,8.87,3,13.51,12.43,12.33,21.43s-8.43,17.93-18.36,16.9c-2.17-.22-2.16,3.18,0,3.41,8.7.9,16.36-5,19.72-12.73C722,1290.33,721.53,1280.62,716.2,1273.58Z" transform="translate(-127.64 -129.12)"/><circle class="cls-4" cx="428.54" cy="1160.24" r="26.25"/><path class="cls-7" d="M568.92,1273.58a21.81,21.81,0,0,0-10.43-7.58c-2.07-.71-3,2.58-.9,3.28,8.87,3,13.51,12.43,12.33,21.43s-8.43,17.93-18.36,16.9c-2.17-.22-2.16,3.18,0,3.41,8.7.9,16.36-5,19.72-12.73C574.74,1290.33,574.25,1280.62,568.92,1273.58Z" transform="translate(-127.64 -129.12)"/><circle class="cls-7" cx="323.32" cy="1160.24" r="26.25"/><path class="cls-7" d="M596.08,1158.86s-13.89-2.15-13.37,9.33,0,14.62,0,14.62l-143.55,56.91v50.79c0,11,15.86,9.75,16.09,2.16.39-13.12,0-41.7,0-41.7l161-54.58v-37.53Z" transform="translate(-127.64 -129.12)"/><path class="cls-4" d="M461,1273.58a21.81,21.81,0,0,0-10.43-7.58c-2.07-.71-3,2.58-.9,3.28,8.87,3,13.51,12.43,12.33,21.43s-8.43,17.93-18.36,16.9c-2.17-.22-2.16,3.18,0,3.41,8.69.9,16.36-5,19.71-12.73C466.84,1290.33,466.35,1280.62,461,1273.58Z" transform="translate(-127.64 -129.12)"/><circle class="cls-7" cx="652.57" cy="1160.24" r="26.25"/><path class="cls-7" d="M635.09,1158.86s13.88-2.15,13.36,9.33,0,14.62,0,14.62L792,1239.72v50.79c0,11-15.87,9.75-16.1,2.16-.39-13.12,0-41.7,0-41.7l-161-54.58v-37.53Z" transform="translate(-127.64 -129.12)"/><path class="cls-4" d="M793,1273.58a21.86,21.86,0,0,0-10.43-7.58c-2.08-.71-3,2.58-.9,3.28,8.87,3,13.51,12.43,12.32,21.43s-8.42,17.93-18.35,16.9c-2.18-.22-2.16,3.18,0,3.41,8.69.9,16.36-5,19.71-12.73C798.76,1290.33,798.27,1280.62,793,1273.58Z" transform="translate(-127.64 -129.12)"/><path class="cls-8" d="M640,597.15s21.53,11.4,40.06,52c15.25,33.35,29.74,70.67,29.74,70.67C729.13,726,773,733.34,777.6,741.91c0,0,8.28-.34,13.7,0s8.32,42,0,42-65.07.46-75.56,0c-10.92-.48-31.09,1-47.36-20S640,597.15,640,597.15Z" transform="translate(-127.64 -129.12)"/><path class="cls-9" d="M794,745.71c4.73-1.3,13.31-2.18,25.58-4.67s34.1,19.24,36.55,28.35S790,778.5,790,778.5,789.23,747,794,745.71Z" transform="translate(-127.64 -129.12)"/><path class="cls-10" d="M830.5,776.85c5.42-.48,10.57-1.1,14.81-1.9-.25-.85-5.76-9.81-11-14.12a5,5,0,0,0-3-1.29,6.6,6.6,0,0,0-3.21,1.25c-3.06,1.62-16.53,4.84-19.61,4.08-2.13-.52-3,2.76-.91,3.28,3.57.88,7.15.62,10.74.39l.21,0a52.46,52.46,0,0,1,6.27-.14,11.29,11.29,0,0,1,4,.58C835.72,772,831.12,775.34,830.5,776.85Z" transform="translate(-127.64 -129.12)"/><path class="cls-10" d="M835.53,749.14c-1.64-1.46-4,.94-2.41,2.4a203,203,0,0,1,20.42,21.06,4.41,4.41,0,0,0,2.54-2.26A203.7,203.7,0,0,0,835.53,749.14Z" transform="translate(-127.64 -129.12)"/><path class="cls-1" d="M715.51,718.32q-10.82-2.09-21.46-5a1.7,1.7,0,0,0-.91,3.28q10.64,2.91,21.47,5C716.75,722,717.66,718.73,715.51,718.32Z" transform="translate(-127.64 -129.12)"/><path class="cls-11" d="M770.16,784a134.5,134.5,0,0,1,6.23-37.1c.67-2.09-2.62-3-3.28-.9a137.57,137.57,0,0,0-6.36,38Z" transform="translate(-127.64 -129.12)"/><path class="cls-8" d="M533,714a31.28,31.28,0,0,0,5.21-1.94c6-2.84,15.75-11.37,19.38-17,6.62-10.26,4.88-26.56,2.95-38a224.75,224.75,0,0,0-7-29.72c-2.92-9.21-7.89-17.15-14-24.74-2.79-3.48-5-5-8.92-7.27-.44-.26-2.41-1-2.87-1.18l-6.64,3.41S527.47,661.12,533,714Z" transform="translate(-127.64 -129.12)"/><path class="cls-12" d="M668.38,763.94s-15.37-34.06-3.84-63.52c11.9-30.4-2.28-39.29-9.57-67.78-5.92-23.15-12.27-33.48-15-35.49C627.88,588,609.85,583.3,597.08,577l-40.92-2.51a29.14,29.14,0,0,1-6.52,7.39c-2.8,2.24-14.38,8.39-21.91,12.3a38.09,38.09,0,0,1,13.44,11.38c6.32,8.32,10.18,18.58,13.06,28.53,1.33,4.59,2.43,9.24,3.34,13.93,1.18,6.07,2.31,12.18,3.06,18.32a59.29,59.29,0,0,1-.27,19.08,32.25,32.25,0,0,1-9,16.63,44.38,44.38,0,0,1-16.16,10.21c-.88.31-1.79.58-2.71.82,3.53,33.36-7.15,43.66-2.41,81.85,7.29,58.66,29.27,85.9,42.94,102.59s54.14,7.45,101.64,8l151.19-81.82L705.43,796.94Z" transform="translate(-127.64 -129.12)"/><path class="cls-13" d="M811.69,1032.55s66.76-3.29,68.63-20.41-18.82-20.07-57.32-9S784.81,1033.56,811.69,1032.55Z" transform="translate(-127.64 -129.12)"/><path class="cls-9" d="M880.32,858.86S765.85,1152.18,754,1180.74c0,0-8.31,98.06-3,108.62s4.54,27-9.19,26.08-88.3-116.17-75.78-125.7L710,1158.86s63.06-292.11,87.49-317.76S879.51,833.86,880.32,858.86Z" transform="translate(-127.64 -129.12)"/><path class="cls-9" d="M833.88,899.62s61.1,311.83,72.28,340.68c0,0,73.08,51.59,84.8,53s28.12,14.26,16.74,22c-2.47,1.68-145.57,10-146.66-5.73l-3.77-58.6s-95.33-271.43-95.45-306.84S816,882.13,833.88,899.62Z" transform="translate(-127.64 -129.12)"/><path class="cls-10" d="M817.82,1022.87c-4.47,8.69-19.08,44.86-23.21,53.71a2.32,2.32,0,0,0,.82,3.1,2.27,2.27,0,0,0,3.1-.81c4.13-8.85,18.74-45,23.21-53.71C823.07,1022.57,819.15,1020.27,817.82,1022.87Z" transform="translate(-127.64 -129.12)"/><path class="cls-12" d="M1007.7,1315.29c11.38-7.75-5-20.62-16.74-22a14.53,14.53,0,0,1-3.4-1c-10.64.52-25.56.82-36.34-.66-15.34-2.11-33.59-17.29-43.33-23.47-11.64-7.39-18.95-10-50.16-10l3.31,51.41C862.13,1325.25,1005.23,1317,1007.7,1315.29Z" transform="translate(-127.64 -129.12)"/><path class="cls-8" d="M1011.37,1310.53c-21.31.88-78.52.83-85.7.21-7.76-.68-17.72-16.68-22.89-17.78-4.21-.91-32.66-3.29-43.07-4.15l1.33,20.75c1.09,15.69,144.19,7.41,146.66,5.73A8.18,8.18,0,0,0,1011.37,1310.53Z" transform="translate(-127.64 -129.12)"/><path class="cls-12" d="M723.72,1236.3c-1.55-14.68-5-38.33-20.26-72.85h0L666,1189.74c-12.52,9.53,62,124.74,75.78,125.7s14.47-15.53,9.19-26.08a13.73,13.73,0,0,1-.94-3.65C745,1278.37,725.26,1251,723.72,1236.3Z" transform="translate(-127.64 -129.12)"/><path class="cls-8" d="M696.85,1242c.43-5.17,2.52-27.32,0-32.86-1.88-4.13-10-22.44-14.05-31.47l-17.22,12.06c-12.52,9.53,62,124.74,75.78,125.7a13.74,13.74,0,0,0,3.82-.24C728.9,1295.08,696.45,1246.79,696.85,1242Z" transform="translate(-127.64 -129.12)"/><path class="cls-12" d="M649,905.89s63.68,0,71.76,7.48c12.47,11.58,13.41,139.37,13.41,139.37s129.08-65.92,146.15-40.6c0,0,14.57-97.51,2.19-155.15-7.85-36.59-89.53-39.23-111.91-39.6S649,905.89,649,905.89Z" transform="translate(-127.64 -129.12)"/><path class="cls-14" d="M725,925.24a249.54,249.54,0,0,1-5.65-32.48,2.33,2.33,0,0,0-2.27-2.26,2.28,2.28,0,0,0-2.26,2.26,256.2,256.2,0,0,0,5.81,33.69C721.35,929.29,725.72,928.08,725,925.24Z" transform="translate(-127.64 -129.12)"/><path class="cls-8" d="M633,668.69c2.14-7.77-7.49-47.16-18.47-83.81-10-4.56-11-4.68-17.49-7.88l-40.92-2.51a29.14,29.14,0,0,1-6.52,7.39l-.37.28C582.58,599.78,628.2,664,633,668.69Z" transform="translate(-127.64 -129.12)"/><path class="cls-5" d="M969.14,783.91c4.7-12.19,31.05-140.78,24.78-143.29-7.38-3-160.66-3.69-167,0-5.63,3.29-27.62,130.57-30.13,133.08s-110.48,1.26-115.5,3.77c-2.92,1.45-3.27,4.3-3,6.44Z" transform="translate(-127.64 -129.12)"/><path class="cls-15" d="M563.44,945.92h-.1l-4.28,0c-58.8-.55-87.49-2-93-4.64-2.35-1.13-6.29-3-24-61.65-8.56-28.31-16.26-56.52-16.33-56.81l6.56-1.78c12,44.17,31.35,108.45,36.94,114.2,3.6,1.44,22.36,3.24,89.92,3.87l4.3,0c.63-.23,7.37-4,15.49-59.27,4.27-29.08,6.77-58,6.8-58.25l6.78.58c0,.3-2.66,30.65-7.13,60.59C577.08,938.14,569.93,945.92,563.44,945.92Zm-94.13-10.61Z" transform="translate(-127.64 -129.12)"/><path class="cls-5" d="M424.71,834s190.55,1.11,211.74,0,12.77-35.69-4.77-40.15-219.39-7.81-227.19-5.58S405.89,833.9,424.71,834Z" transform="translate(-127.64 -129.12)"/><path class="cls-6" d="M631.9,809.4a33.77,33.77,0,0,0-3.15-6.82c-1.42-2.15-3.41-3-5.8-3.72-10.38-3-21.52-3.1-32.22-3.92-2.18-.17-2.17,3.24,0,3.4,9.72.75,19.74.92,29.25,3.26,2,.5,4.56.85,5.83,2.69a28.22,28.22,0,0,1,2.89,6.26,44.29,44.29,0,0,1,2.6,13.86c.06,2.19,3.46,2.2,3.4,0A47.2,47.2,0,0,0,631.9,809.4Z" transform="translate(-127.64 -129.12)"/><path class="cls-16" d="M611.51,468.43c-5.29-7.05-13.88-12-22.87-11.24a21.92,21.92,0,0,0-2.44,0c-21.51.91-20.91-8.49-44.5.6a33.37,33.37,0,0,0-9.54,5.6,27.9,27.9,0,0,0-10.08-11.65,22,22,0,0,0-14.27-3.51,14.61,14.61,0,0,0-6.78,2.46,12.54,12.54,0,0,0-4.3,6.18c-.94,2.39-2.81,3.69-4.83,5.14a30.43,30.43,0,0,0-5.65,5.1,24.72,24.72,0,0,0-5.85,13.24,26,26,0,0,0,10.82,23.62,25.68,25.68,0,0,0,12.15,4.44,32.11,32.11,0,0,0-6.25,16.4,2.27,2.27,0,0,0,4.54,0,27.11,27.11,0,0,1,3.53-11.07,65.45,65.45,0,0,0,3.43,20c.88,2.78,5.26,1.59,4.38-1.2-2.47-7.81-4.11-16.11-2.84-24.22a30.64,30.64,0,0,0,5-1.08c-.1,8.62,3.14,19.25,9.31,29.92,9.81,17,28.07,17.42,28.07,17.42,17.57.76,54.23-42.87,56.41-57.27,1.27-8.42.61-21.05-4.47-29.89a24.06,24.06,0,0,1,3.6,4c5.08,7.19,6.4,16.2,6,24.81-.15,2.92,4.39,2.91,4.54,0C619.09,486.61,617.41,476.3,611.51,468.43Z" transform="translate(-127.64 -129.12)"/><path class="cls-9" d="M528,513.67c2.86-2.23,6.84-.94,9.73.53a27.12,27.12,0,0,1,4.38,2.8c1,.78,2.1,3.59,3.63,2.39a3.62,3.62,0,0,0,1-2.61,39.5,39.5,0,0,0,.14-6.79,23.14,23.14,0,0,1-.21-4.77c.29-2.41,1.64-4.57,2.05-7,.3-1.72.1-3.51.6-5.17.9-3,3.82-4.9,6.72-6.06s6-1.87,8.57-3.69c5-3.57,6.59-9.5,13.13-11.15,7-1.76,15.3,2.75,19.54,8.22,15.32,20,32.84,48.87,21.66,71.34-9.14,13.75-26.5,11-26.26,11L597.08,577s-4.27,2.14-19.74,2.55c-19.16,0-21.18-5.06-21.18-5.06-1.51-5-8.5-32.24-10.58-37.86,0,0-13.59,6.9-19.37-7.08C524.72,525.9,522.56,517.81,528,513.67Z" transform="translate(-127.64 -129.12)"/><path class="cls-17" d="M604,517a2.06,2.06,0,0,0-2.64-1.16l-3,1.2a2,2,0,0,0,1.48,3.81l3-1.21A2.08,2.08,0,0,0,604,517Z" transform="translate(-127.64 -129.12)"/><path class="cls-16" d="M571.54,488.94c-2.49,1.39-1.93.95-4.34,2.47s-4.7,3.4-7.09,5c-2.15,1.48,0,5,2.14,3.48,2.39-1.64,4.63-3.5,7.09-5s1.85-1.08,4.34-2.47C576,491.14,573.83,487.66,571.54,488.94Z" transform="translate(-127.64 -129.12)"/><path class="cls-16" d="M595.7,491.5a1.92,1.92,0,0,1-1.13-1.46,1.73,1.73,0,0,1,1.57-2,14.71,14.71,0,0,1,3.63-.07c1.48.23,3,.68,4.43,1a7.47,7.47,0,0,1,1.79.57,2.5,2.5,0,0,1,1.26,1.34c.89,2.57-2.93,1.28-4.15,1.1a26.75,26.75,0,0,0-6.44-.36A1.93,1.93,0,0,1,595.7,491.5Z" transform="translate(-127.64 -129.12)"/><path class="cls-18" d="M570,511.3a2.31,2.31,0,0,1-3.52-1.83c.08-1.9,2.66-4,4.31-4.67,2.48-1,5.34-1.19,6.65-.56,2.28,1.11,2.66,3.77,1.22,3.8C572.7,508.17,571.07,510.64,570,511.3Z" transform="translate(-127.64 -129.12)"/><path class="cls-18" d="M611.92,504.72c1-2.36-2.43-4.09-4.06-4.62a7.92,7.92,0,0,0-5.39,0,1.73,1.73,0,0,0-1,.86,2.54,2.54,0,0,0,.43,2.74c1.39,1.64,2.91.19,4.59.22C609.71,504,611.44,505.86,611.92,504.72Z" transform="translate(-127.64 -129.12)"/><path class="cls-18" d="M565.59,554.57c6.84,9.35,15.58,13.91,29,14.58l-2-6.38v0h-.12C582.55,561.88,572.16,557.71,565.59,554.57Z" transform="translate(-127.64 -129.12)"/><path class="cls-8" d="M609.63,528.31c-3-.44-21.06.59-23.76,1.45C588.8,540.35,606.55,549.35,609.63,528.31Z" transform="translate(-127.64 -129.12)"/><path class="cls-5" d="M627.25,611.12c-1.1-14.69-23.86-22-31.86-24.16a3.77,3.77,0,0,0,.1-.83,4.65,4.65,0,0,0-.5-2,2.34,2.34,0,0,0-.15-.27c1.8-2.05,4.08-4.81,4.33-5.81.41-1.68-3.83-12.28-4.53-8.86s-3.71,8.93-5.35,9.56c-3.35,1.3-31.35-11.27-35.69-13.55s-3.9,13.66-2.17,15.15,26.09,6.33,31.71,6.33c0,0,0,2.78,2,3.24,0,0-16.46,31.51,2.79,67.21,0,0,.6-22.35,3.38-34.11s1.32-32.08,1.32-32.08,28.75,33.68,33,56.24C625.66,647.14,628.59,629,627.25,611.12Z" transform="translate(-127.64 -129.12)"/><path class="cls-8" d="M515.19,507.23s-3-18.86,7-27.05c0,0,5.21-13.47,10-16.82s2-5.68-5-3.32-15.27,9-19.83,26-.32,22.66,2,23.76S514.24,510.88,515.19,507.23Z" transform="translate(-127.64 -129.12)"/><path class="cls-8" d="M613.4,703.78c-2.26-3.76-20.77,4.86-20.77,4.86s-27.25-2.35-52.52,6.56c0,0,7-114.45-10-118.05-45.55-9.65-58.13,158.54-57,166.26s-1,24,22.2,24.79c46.11,1.66,58.49,2.52,76.24-7.67,10.23-5.87,27.2-18.62,27.2-18.62s4.9-2.63,12-6C614.71,754.05,622.15,718.35,613.4,703.78Z" transform="translate(-127.64 -129.12)"/><path class="cls-12" d="M591.57,704.68a176.7,176.7,0,0,0-49.32,6.37,321.35,321.35,0,0,0-3.9-65.43c-.36-2.16-3.64-1.25-3.29.9A316.39,316.39,0,0,1,538.82,712V712q-5.88,1.77-11.64,3.93a179.32,179.32,0,0,0-16.88,7.39c-1.95,1-.23,3.92,1.72,2.94a172.31,172.31,0,0,1,79.55-18.21C593.76,708.11,593.76,704.71,591.57,704.68Z" transform="translate(-127.64 -129.12)"/><path class="cls-18" d="M617.21,733.82s-2.79,21.69-6.45,22.1c-4.14.46-3-27.43-3-27.43Z" transform="translate(-127.64 -129.12)"/><path class="cls-19" d="M679.58,696.34c-1.45-1.28-3.5-1.57-5.34-1.89a61,61,0,0,0-7.86-.91,1.68,1.68,0,0,0-1.14,2.79,1.79,1.79,0,0,0,.37,1.08c2.73,3.47,6.57,6,9.66,9.17a1.78,1.78,0,0,0,1.25.51,1.5,1.5,0,0,0,2.15-.14C681.1,704.43,682.59,699,679.58,696.34Z" transform="translate(-127.64 -129.12)"/><path class="cls-5" d="M692,725.41a7.33,7.33,0,0,0-1.51-1.64,6.58,6.58,0,0,0-1-3.31l-27.62-26.7s-31.31-28.55-34.07-27.63S625,668.9,626,670.74s26.7,24.86,26.7,24.86,32.23,29.47,35.91,29.47a2.55,2.55,0,0,0,.79-.11,6.9,6.9,0,0,0,1.6,1.46A.74.74,0,0,0,692,725.41Z" transform="translate(-127.64 -129.12)"/><path class="cls-9" d="M607.54,740.72s-.92-34.07,4.6-36.83c0,0,12.89-.92,18.42-4.61s16.58-12,20.26-12,19.34,8.29,22.1,11.05,11.05,14.74,10.13,17.5-7.37,1.84-7.37,1.84,2.3,5.07-1.38,6.91-5.52,0-6.45,1.84-3.68,5.53-7.36,4.6-4.61,2.77-8.29,3.69-19.34.92-23,1.84S607.54,740.72,607.54,740.72Z" transform="translate(-127.64 -129.12)"/><path class="cls-19" d="M673.33,712.4c-3.35-2.75-4.38-6.78-8.45-8.9s-9.1-2.48-13.52-4.06c-2-.7-2.76,2.36-.86,3.09,4.26,1.64,9.22,1.94,13.16,4.34,3.33,2,4.45,6,7.57,8.25C672.81,716.27,674.85,713.65,673.33,712.4Z" transform="translate(-127.64 -129.12)"/><path class="cls-19" d="M667.62,721c-4.49-6.29-12.93-8.91-19.9-11.35-2-.69-2.77,2.39-.85,3.09A58.81,58.81,0,0,1,665.11,723C666.4,724,668.76,722.64,667.62,721Z" transform="translate(-127.64 -129.12)"/><path class="cls-19" d="M658.71,727.37c-.58-3.2-3.27-4.46-6.22-5-5.1-1-10.48-1.26-15.65-1.86-1.76-.21-2.19,2.87-.42,3.12l9.38,1.3c2.57.35,8.58.17,9.6,3.39A1.72,1.72,0,0,0,658.71,727.37Z" transform="translate(-127.64 -129.12)"/><path class="cls-11" d="M592.67,708.62a78.68,78.68,0,0,0-2.28,37.64c.39,2.15,3.67,1.24,3.28-.91a75,75,0,0,1,3.19-38.54C594.57,707.75,592.91,708.51,592.67,708.62Z" transform="translate(-127.64 -129.12)"/><rect class="cls-8" x="218.8" y="654.8" width="1183.03" height="26.06"/><path class="cls-20" d="M905.7,289.49a1.71,1.71,0,0,1-1.7-1.71V156.22a1.7,1.7,0,1,1,3.4,0V287.78A1.71,1.71,0,0,1,905.7,289.49Z" transform="translate(-127.64 -129.12)"/><path class="cls-20" d="M921.71,290.66v-9.54a4.53,4.53,0,0,0-4.53-4.53h-23a4.53,4.53,0,0,0-4.53,4.53v9.54s-90.33,27.21-90.33,74.13H1012C1012,317.87,921.71,290.66,921.71,290.66Z" transform="translate(-127.64 -129.12)"/><path class="cls-8" d="M821.85,350.66a1.7,1.7,0,0,1-1.51-2.48c10-19.36,36.64-32.59,57.23-40.27a1.7,1.7,0,0,1,1.19,3.19c-20,7.47-45.89,20.24-55.4,38.64A1.68,1.68,0,0,1,821.85,350.66Z" transform="translate(-127.64 -129.12)"/><path class="cls-8" d="M890,307.1a1.7,1.7,0,0,1-.52-3.32c4.09-1.31,8.27-2.54,12.44-3.67a1.7,1.7,0,1,1,.89,3.29c-4.12,1.11-8.26,2.33-12.29,3.62A1.61,1.61,0,0,1,890,307.1Z" transform="translate(-127.64 -129.12)"/><polyline class="cls-11" points="499.96 654.8 635.56 654.8 636.25 651.4 623.88 651.44 623.01 649.89 630.97 647.6 631.56 645.46 626.7 645.71 626.38 644.62 634.07 643.48 634.18 640.41 443.06 640.41 443.06 643.47 453.42 644.38 437.59 645.35 436.11 646.7 449.41 647.6 432.13 648.51 431.25 651.28 439.48 651.28 437.95 652.05 432.37 652.46 432.37 654.8"/><rect class="cls-21" x="268.42" y="1002.71" width="6.3" height="179.28"/><rect class="cls-21" x="1471.61" y="1131.82" width="6.3" height="179.28" transform="translate(2821.88 2313.82) rotate(180)"/><rect class="cls-20" x="1499.72" y="1131.82" width="6.3" height="179.28" transform="translate(2878.1 2313.82) rotate(180)"/><rect class="cls-20" x="240.31" y="680.86" width="1138.22" height="321.85"/><rect class="cls-21" x="240.31" y="680.86" width="1138.22" height="195.58"/><rect class="cls-20" x="240.31" y="1002.71" width="6.3" height="179.28"/><rect class="cls-21" x="1471.61" y="1131.82" width="6.3" height="179.28" transform="translate(2821.88 2313.82) rotate(180)"/><rect class="cls-20" x="1499.72" y="1131.82" width="6.3" height="179.28" transform="translate(2878.1 2313.82) rotate(180)"/><polygon class="cls-22" points="1289.92 600.65 1314.96 919.87 1299.91 923.55 1273.4 599.87 1289.92 600.65"/><polygon class="cls-23" points="1082.99 1239.31 999.8 895.58 985.47 899.05 1067.82 1239.31 1082.99 1239.31"/><polygon class="cls-23" points="1297.96 1239.14 1214.81 895.58 1200.47 899.05 1282.79 1239.14 1297.96 1239.14"/><rect class="cls-23" x="915.81" y="860.68" width="313.96" height="29.7" rx="7.39"/><path class="cls-23" d="M986.56,1368.42l77.57-327.1v0l0-.21,0,.2c.46-1.22,3.44-7.48,16.73-7.48h19.05l.9,0a133.34,133.34,0,0,0,38.06-11.88c26.45-12.89,43.19-33,48.41-58,10.06-48.28,31.65-190.18,37.06-226a7.22,7.22,0,0,0-14.27-2.16c-4.82,31.59-27,176.26-37.23,225.19-9.64,46.3-64.89,56.82-72.88,58.11a7,7,0,0,1-1.12.08h-18c-26,0-30.82,17.75-31,18.51l-78.3,330.21c0,.22-.09.43-.12.65Z" transform="translate(-127.64 -129.12)"/><path class="cls-23" d="M1194.3,1368.25l80-326.42v0l0-.21,0,.2c.46-1.22,3.44-7.47,16.73-7.47l20.58-.52.9,0a133.34,133.34,0,0,0,38.06-11.88c26.45-12.89,43.19-33,48.41-58,10.23-49.09,32.37-194.94,37.32-227.73a5.74,5.74,0,0,0-5.68-6.59h-3a5.72,5.72,0,0,0-5.67,4.87c-4.39,28.78-27.09,176.83-37.42,226.45-9.7,46.53-65.46,56.93-73,58.12a5.34,5.34,0,0,1-.89.07l-19.63.52c-26,0-30.82,17.75-31,18.5l-78.46,330.18Z" transform="translate(-127.64 -129.12)"/><polygon class="cls-23" points="1059.67 780.6 1270.99 782.56 1300.63 600.43 1088.97 600.43 1059.67 780.6"/><path class="cls-24" d="M1357.14,960.56s13.32-6.95,13.32-33.6-13.71-37.72-18.53-48.41-12.75-141-12.75-141l-25.76-94.3s-49.26-21.1-57.5-16.87c-13.55,6.94-40.19,18-41.61,18s-57.6,28.27-63.4,31.17,27.68,28.53,23.52,53.44-9,44.17,7.67,60.91c10.45,10.49,23.2,31.87,20.54,55.13s-32.12,112.63,57.42,115.53S1357.14,960.56,1357.14,960.56Z" transform="translate(-127.64 -129.12)"/><path class="cls-8" d="M1207.22,660.65a361.36,361.36,0,0,0,15,69.91c1.62,5.07,7.33,24.7,8.73,29.42,2.46,8.3,5.25,17.08,10,24.44q.26-18,1.48-36c1.54-23.17,4.17-46.29,8.94-69,3.73-17.85,8.71-35.6,15.9-52.39-5.27-1.19-9.45-1.59-11.38-.6-13.55,6.94-40.19,18-41.61,18-.33,0-3.49,1.47-8.25,3.77C1206.38,652.32,1206.75,656.49,1207.22,660.65Z" transform="translate(-127.64 -129.12)"/><path class="cls-25" d="M1278.06,862.09a239.19,239.19,0,0,0-28,9.87c-6.67,2.94-11.58,9.82-17.11,14.57,5.75,1.22,70.23-3.07,77.55-3.07,19.77,0,30.3,1.15,48.26,6.27-2.7-4.12-5.24-7.67-6.82-11.18-1.41-3.1-3.07-16.33-4.73-33.52q-5.94,1.44-11.9,2.83C1316.15,852.33,1296.92,856.47,1278.06,862.09Z" transform="translate(-127.64 -129.12)"/><path class="cls-25" d="M1295.53,685.19a101.24,101.24,0,0,1,14.36-43.44l-2.11-.87a102.15,102.15,0,0,0-14.52,44.31C1293.13,686.65,1295.4,686.64,1295.53,685.19Z" transform="translate(-127.64 -129.12)"/><path class="cls-26" d="M1246.39,657.76a9.22,9.22,0,0,1-3.88,2.22c-1.62.26-2.61-1-3.56-2.11a31.56,31.56,0,0,0-6.76-6c-2.36-1.51-5.56-3.45-7.73-.59a29,29,0,0,0-2.25,4l-2.5,4.67c-.84,1.58-1.61,3.24-2.58,4.74-.68,1-1.67,2.43-3.09,2.06s-3.1-1.83-4.37-2.79c-.77-.58-1.52-1.19-2.26-1.81.18,1.61.39,3.22.6,4.82a37.61,37.61,0,0,0,3.2,2.18,5.65,5.65,0,0,0,7.55-1c2.19-2.34,3.48-5.71,5-8.51l2.64-4.91c.32-.6.57-1.56,1.25-1.55s1.8.91,2.42,1.3a35.19,35.19,0,0,1,7,6.38c2.2,2.39,5,3.24,8.07,1.78s5.38-3.77,7.77-5.86c1.9-1.66,3.73-3.41,5.52-5.2.77-2.55,1.58-5.07,2.42-7.59A102.79,102.79,0,0,1,1246.39,657.76Z" transform="translate(-127.64 -129.12)"/><path class="cls-25" d="M1277.78,727.27q2.55-6.59,5-13.21c1.59-4.39,3.55-8.91,4.41-13.5a14.36,14.36,0,0,0-.48-7.85,29.32,29.32,0,0,0-3.55-6.35c-2.88-4.19-5.9-8.27-9-12.3l1.57-1.18c3.73-2.85,7.57-5.7,11-8.88a6.75,6.75,0,0,0,2.45-5.57,40.69,40.69,0,0,0-1.62-7q-1.82-6.79-4.19-13.43c-.86-2.41-1.77-4.81-2.74-7.18-1.9-.62-3.79-1.22-5.62-1.76a175.25,175.25,0,0,1,9.17,27.43c.27,1.11.87,2.5.14,3.54a12.54,12.54,0,0,1-2.29,2.07q-3.32,2.78-6.72,5.45c-4.39,3.44-8.9,6.73-13.49,9.89-2.39,1.65-.12,5.59,2.29,3.92q3.24-2.23,6.42-4.56,4.08,5.29,7.91,10.78c2.5,3.6,5.19,7.2,4.34,11.82s-2.76,9-4.32,13.26-3.15,8.5-4.78,12.73c-6.61,17.11-13.66,34.1-18.55,51.81a169.13,169.13,0,0,0-5.64,30.52c-.25,2.91,4.29,2.89,4.54,0,1.59-18.62,7.15-36.59,13.59-54C1270.89,744.8,1274.39,736.05,1277.78,727.27Z" transform="translate(-127.64 -129.12)"/><path class="cls-25" d="M1231.24,787.21a2.33,2.33,0,0,0,3.1.82,2.28,2.28,0,0,0,.81-3.11l-24.89-34.32L1198,733.67c-2-2.84-4.18-5.64-6.17-8.52a5.64,5.64,0,0,1-1.39-3.61,21.23,21.23,0,0,1,1.47-5,145.19,145.19,0,0,1,8.21-19.06c1.4.58,2.8,1.15,4.21,1.71a2.29,2.29,0,0,0,2.8-1.59,2.33,2.33,0,0,0-1.59-2.79q-7.26-2.85-14.27-6.29a12.7,12.7,0,0,1-2.56-1.39c-.87-.72-.7-1.86-.62-2.88.21-2.41.58-4.82,1-7.21a138,138,0,0,1,6-23.49l-5.72,2.82a137.87,137.87,0,0,0-5.16,22.61c-.37,2.59-1.12,5.59-.53,8.19s2.59,3.92,4.82,5q3.69,1.82,7.45,3.48a153.19,153.19,0,0,0-7.53,17.17c-1.16,3.18-3,6.91-2.41,10.37.51,3.12,3,5.71,4.76,8.19l25.89,35.69Z" transform="translate(-127.64 -129.12)"/><path class="cls-27" d="M1146,1349.53s-3.25,15.27-16.61,17.23-48.75,4.31-54.53-6.66,6.75-59.33,10-90.45a271.27,271.27,0,0,0,.72-40.9l1.45-62.65,50.55,48.73-5,33.29S1148.53,1330.74,1146,1349.53Z" transform="translate(-127.64 -129.12)"/><path class="cls-22" d="M1130.85,1270.07c-3.21-11.3-10.69-13.32-22.44-11.88s-13.09,18.54-17.1,20.28-6.22-11.21-6.22-11.21h0c-.07.79-.15,1.59-.23,2.38-3.25,31.12-15.78,79.49-10,90.45s41.17,8.62,54.53,6.66,16.61-17.23,16.61-17.23c1.67-12.4-4.73-52.56-9.27-78.47C1135.09,1275.34,1132.86,1277.17,1130.85,1270.07Z" transform="translate(-127.64 -129.12)"/><path class="cls-28" d="M1146.14,1339.6c-3.74,11.6-13.87,17.78-36.76,17.84-20.12,0-31.07-5-36-7.8-.07,4.66.35,8.3,1.49,10.46,5.78,11,41.17,8.62,54.53,6.66s16.61-17.23,16.61-17.23A59.4,59.4,0,0,0,1146.14,1339.6Z" transform="translate(-127.64 -129.12)"/><path class="cls-24" d="M1130.37,1282.94a67.83,67.83,0,0,0-36.56,4.68,2.28,2.28,0,0,0-.81,3.11,2.32,2.32,0,0,0,3.1.81,62.16,62.16,0,0,1,33.06-4.22,2.36,2.36,0,0,0,2.8-1.58A2.3,2.3,0,0,0,1130.37,1282.94Z" transform="translate(-127.64 -129.12)"/><path class="cls-24" d="M1133.73,1301.62a55.17,55.17,0,0,0-42,4.75c-2.55,1.42-.26,5.34,2.29,3.91a50.52,50.52,0,0,1,38.48-4.28C1135.33,1306.82,1136.53,1302.44,1133.73,1301.62Z" transform="translate(-127.64 -129.12)"/><path class="cls-24" d="M1133.11,1320.41a55.19,55.19,0,0,0-42,4.74c-2.55,1.42-.27,5.34,2.29,3.92a50.56,50.56,0,0,1,38.48-4.29C1134.72,1325.6,1135.92,1321.22,1133.11,1320.41Z" transform="translate(-127.64 -129.12)"/><path class="cls-29" d="M1147.05,845.47a43.42,43.42,0,0,0-19.69,23c-5.8,16.22-6.71,33-6.14,50.38,0,0-20.9,21.23-29.78,47.1s-39.38,203.89-40.54,207,12.74,12.36,30.51,16.22,57.54,26.65,64.11,29,21.62-75.7,21.62-75.7,32.82,9.65,47.5,12.36l9.58-155.61,96.62-.78s32.44-2.31,39.77-32c5.81-23.54.78-46.73-7.33-55.61s-27.81-20.86-54.07-22c-16.81-.75-71.83,2.31-71.83,2.31S1206.14,816.46,1147.05,845.47Z" transform="translate(-127.64 -129.12)"/><path class="cls-23" d="M1224.22,999.18s2.71-4.48,48.27-7.16,74.12-2.22,74.12-2.22-9.66,19-50.76,16.29S1224.22,999.18,1224.22,999.18Z" transform="translate(-127.64 -129.12)"/><path class="cls-22" d="M1275.92,899.21a2.33,2.33,0,0,0-2.79-1.59,321.76,321.76,0,0,0-46.49,10.47q.12-4.17.22-8.34c.08-2.92-4.46-2.92-4.53,0l-2.4,90.07c-.8,30.11-3.14,84.15-3.94,114.27l-1.35,50.7c-.08,2.92,4.46,2.91,4.54,0l2.4-90.07c.8-30.12,3.13-84.16,3.93-114.27q.51-18.8,1-37.58A320.4,320.4,0,0,1,1274.34,902,2.28,2.28,0,0,0,1275.92,899.21Z" transform="translate(-127.64 -129.12)"/><path class="cls-30" d="M1122.61,956.87q-.69-21-1.39-42c-.1-2.92-4.63-2.93-4.54,0,.8,24.19,1.83,48.39,2.21,72.6.37,23.4-2.33,67-5.47,90.21-1.76,13-3.68,29.77-7.42,42.36-.83,2.81,3.55,4,4.38,1.21,6.68-22.53,11.32-69.88,12.51-93.3C1124.09,1004.24,1123.39,980.54,1122.61,956.87Z" transform="translate(-127.64 -129.12)"/><path class="cls-27" d="M1154.89,1131.82s55.68,8.73,59.75,23,8,62,9.55,67.09,11.16,36.77,10.92,45.38c-.14,5.09-7.39,17.66-8.57,23.54s2.49,44.08-39.32,51.68c-60.3,11-6.17-17.11-6.17-36.69s6.28-53.28,6.28-61.39S1154.89,1131.82,1154.89,1131.82Z" transform="translate(-127.64 -129.12)"/><path class="cls-22" d="M1244.55,1272c.22-8.11-16.64-40.88-19.91-48.91-5.45,16.13-8.23,54.64-25.39,31.57-7.73-10.4-11.88-2.88-15.7,6.13-5,18.35-2,11.84-19.47,52.79-4.08,9.54-14.06,25.12-13.77,35.83,3.53,4.37,9.16,9.23,37.51,4.07,41.8-7.6,45.38-57.59,46.55-63.47S1244.41,1277.09,1244.55,1272Z" transform="translate(-127.64 -129.12)"/><path d="M1154.89,1131.82s-34.89-9.17-44.07-3,47.67,20.59,47.67,20.59Z" transform="translate(-127.64 -129.12)"/><path class="cls-28" d="M1249.34,1280.5c-2.58-8-7.35-18.43-7.35-18.43h0c-.85-2.29-1.86-4.8-3-7.41a35.33,35.33,0,0,1-7,12.6c-7.83,8.66-5.18,12.14-5.48,23.54-.88,34.11-17.5,48.8-26.82,54.11-8,4.52-35.24,13.71-49.41,4.5,2.3,10.92,8.68,13.84,36.88,10,29.82-4.08,40.47-34.24,44.58-53.57h0c2-5,3.83-3.41,4.64-2.12S1251.92,1288.45,1249.34,1280.5Z" transform="translate(-127.64 -129.12)"/><path class="cls-24" d="M1195.74,1303a73.33,73.33,0,0,0-15.45-2.27c-4.72-.17-9.56.39-13.67,2.87-2.49,1.51-.22,5.44,2.29,3.92,3.57-2.16,7.76-2.42,11.84-2.23a67.61,67.61,0,0,1,13.78,2.09C1197.36,1308.06,1198.57,1303.68,1195.74,1303Z" transform="translate(-127.64 -129.12)"/><path class="cls-24" d="M1199.92,1284.79c-8.67-1.23-17.5-2.28-25.75,1.39a2.28,2.28,0,0,0-.81,3.1,2.32,2.32,0,0,0,3.1.82c7-3.1,15-2,22.26-.94a2.34,2.34,0,0,0,2.79-1.58A2.29,2.29,0,0,0,1199.92,1284.79Z" transform="translate(-127.64 -129.12)"/><path class="cls-24" d="M1199.67,1269.17c-7.4-.51-14.88-.78-21.83,2.23a2.29,2.29,0,0,0-.82,3.11,2.33,2.33,0,0,0,3.11.81c6.09-2.64,13.09-2.06,19.54-1.62a2.28,2.28,0,0,0,2.27-2.26A2.31,2.31,0,0,0,1199.67,1269.17Z" transform="translate(-127.64 -129.12)"/><path class="cls-24" d="M1360.23,727.3c-10-36.69-29.27-76.4-46.81-84.07-12.53,12.85-11.89,53.17-11.89,53.17,3.47,20.47,4.25,107.75,4.25,107.75l-95.39,27.42s1.54,0,10.81,3.48,15.06,21.24,14.29,35.14-6.57,16.6-6.57,16.6,122.62-23.81,139.23-36.55S1370.27,764,1360.23,727.3Z" transform="translate(-127.64 -129.12)"/><path d="M1219.77,881.67s5.3,6.12,9.15,5.12c6.78-1.74,7.23-20.56,5.95-26.47s-18.73.15-22.72,4.45S1219.77,881.67,1219.77,881.67Z" transform="translate(-127.64 -129.12)"/><path class="cls-27" d="M1235.38,871.71s-21.92,6.57-25,9.08-14,12.35-22.32,16.77-11.5,5.82-15.64,3.31,5-9.2,8.12-11.15,10.87-6.7,11.15-9.48-9.83-.44-19.27,5.08-18.93,9.69-22.27,8.86-7.25-5.73-1.12-9.42,29.56-16.23,29.56-16.23-21.75,6.67-29,10.3-13.38,7-16.45,1.68,1.11-7,3.62-10-1.11-13.11,6.14-17.85,19-10,18.12-10.59,1.39-4.37,3.35-6.92,46-3.55,46-3.55a22,22,0,0,1,14.64,4.66C1239,846.79,1235.38,871.71,1235.38,871.71Z" transform="translate(-127.64 -129.12)"/><path class="cls-31" d="M1203.88,866.93a12.63,12.63,0,0,0-2.58-1.53c-.75-.34-2.12-.55-2.57-1.23s-.43-1.95-.85-2.77a9.35,9.35,0,0,0-1.68-2.22c-1.23-1.27-2.75-2.33-3-4.18-.33-2.14-.1-4.11-1.54-5.9-2.17-2.68-6.27-2.88-7.71-6.2-.94-2.16-1.83-4-3.89-5.32a9,9,0,0,0-6.35-1.22c-2.16.34-1.24,3.62.9,3.28a5.38,5.38,0,0,1,5.18,2.32,35.22,35.22,0,0,1,1.52,3.3,7.42,7.42,0,0,0,2,2.32c1.49,1.18,3.33,1.77,4.87,2.87,2.05,1.46,1.32,3.8,1.88,5.95s2.1,3.47,3.56,4.92a5.52,5.52,0,0,1,1.56,2.23c.37,1.17.38,2.28,1.33,3.21a8.55,8.55,0,0,0,3,1.5,10,10,0,0,1,2.9,1.76c1.69,1.53,2.57,3.94,1.3,6-1.14,1.87,1.8,3.58,2.94,1.72C1208.84,874,1207.17,869.45,1203.88,866.93Z" transform="translate(-127.64 -129.12)"/><path class="cls-31" d="M1166.31,850.44q-13.74,7.13-27.15,14.86c-1.9,1.09-.18,4,1.72,2.94q13.41-7.72,27.15-14.86C1170,852.37,1168.25,849.43,1166.31,850.44Z" transform="translate(-127.64 -129.12)"/><path class="cls-25" d="M1328.38,794.35l-20.7,6.22q-.83-32.21-1.64-64.41l-.48-18.9c-.07-2.91-4.61-2.92-4.54,0q.86,33.42,1.7,66.84l.45,17.82L1245,819.38l-23.62,7.09c-2.79.84-1.6,5.22,1.21,4.38l83.34-25,23.61-7.1C1332.37,797.89,1331.18,793.51,1328.38,794.35Z" transform="translate(-127.64 -129.12)"/><path class="cls-24" d="M935.78,741.37s88.9-9.76,106.86-11.16c9.29-.72,108.93-55,108.93-55s30,13.47,30.53,35.2,6.08,39.12,1.83,43.46-79.33,29.14-86,30-150.69,0-150.69,0Z" transform="translate(-127.64 -129.12)"/><path d="M945,762.42s-4-16.82-7.82-20.42-3.2,8.23-3,15.08S945.34,769.73,945,762.42Z" transform="translate(-127.64 -129.12)"/><path class="cls-27" d="M947.24,783.91H878.4s-3.39-.69-4.86-3.26a4.71,4.71,0,0,1,0-4.78s-7.11-6.89-7.91-9,1.65-6,1.65-6-3.06-3.93-3.12-6.69,9.38-9,18-10.91,8.28,1.29,9.51.92a23.17,23.17,0,0,1,10.66,0c5,1.16,13,4.46,17.52,6.1s21.54.09,21.54.09S947.24,762.39,947.24,783.91Z" transform="translate(-127.64 -129.12)"/><path class="cls-8" d="M876.55,752.26s-21.82-45.86-22.78-47.56,3.68-4.36,4.71-2.28,24.78,49.84,24.78,49.84a4,4,0,0,0-2.71,2.76Z" transform="translate(-127.64 -129.12)"/><path class="cls-8" d="M887.08,760l1.44,3,.83,5s.72,1,.16,1.43-1.46-.82-1.46-.82l-2.59-.4s1.07-5.11.49-7.72Z" transform="translate(-127.64 -129.12)"/><path class="cls-31" d="M888.79,778.73c2-1.17,3.05-3.29,2.11-5.49,0-.11-.11-.21-.16-.31,1.92.06,4,.28,5.44,1.45a3.47,3.47,0,0,1,.93,1.07,2,2,0,0,1,.27,1.09,2.48,2.48,0,0,1-.3,1,1.3,1.3,0,0,1-.66.54c-1.39.43-.8,2.62.6,2.19a3.77,3.77,0,0,0,1.07-.56h0l.13,0h.39a1.14,1.14,0,0,1,.26,0h0a3,3,0,0,1,.49.13l.22.07h0l0,0,.45.25.19.12.15.12.31.28c.12.12.24.26.36.4l0,0h0a1.43,1.43,0,0,0,.14.2,8,8,0,0,1,.53,1l.1.22v0l.21.56q.14.42.24.84h2.28a1,1,0,0,0,0-.39,9.39,9.39,0,0,0-2.41-4.61,5.92,5.92,0,0,0-2.72-1.43l.06-.24a4.65,4.65,0,0,0-1.3-4c-2.22-2.38-5.75-2.54-8.78-2.61a1.15,1.15,0,0,0-.34.06c-.81-.87-1.72-1.68-2.55-2.47a9.68,9.68,0,0,0,.75-2.58,8.58,8.58,0,0,0-.41-4.51,14.08,14.08,0,0,0,5.5-.62,29.56,29.56,0,0,0,4.45-1.79,13.23,13.23,0,0,0,3.43,2.18,6.23,6.23,0,0,1,1.75.87,3.53,3.53,0,0,1,.84,1.27c.51,1.18.71,2.47,1.22,3.65a5,5,0,0,0,2.48,2.76,1.17,1.17,0,0,0,1.55-.4,1.14,1.14,0,0,0-.4-1.55,3.48,3.48,0,0,1-1.8-2.33,26.4,26.4,0,0,0-1.23-3.57,5.29,5.29,0,0,0-3-2.56,12,12,0,0,1-2.67-1.49,25.76,25.76,0,0,0,3.52-2.56c1.11-1-.5-2.55-1.6-1.6a26.53,26.53,0,0,1-8,4.56c-2.67,1-5.7,1.53-8.37.23a5.81,5.81,0,0,1-2.66-2.41c-.44-.83-.13-1.06.5-1.61s1.19-1,1.8-1.5c2.43-2,5-3.85,7.6-5.59,1.21-.81.07-2.77-1.15-2a102.74,102.74,0,0,0-9.55,7.19,6.51,6.51,0,0,0-1.19,1.23L876,750.65a1.14,1.14,0,0,0-1.55.41,1.16,1.16,0,0,0,.4,1.55l4.69,3.41.06,0c0,.11.06.21.11.32a7.68,7.68,0,0,0,2.94,3.32,8.24,8.24,0,0,0,1.35.7,1.24,1.24,0,0,0,.23.42,5.66,5.66,0,0,1,.87,4.7,6,6,0,0,1-.86,2.35c-.57.77-1.44.5-2.18.12a64.36,64.36,0,0,1-5.75-3.68l-5.89-3.81c-1.22-.8-2.36,1.16-1.14,1.95l7.48,4.86c1.15.74,2.28,1.51,3.44,2.23a5.58,5.58,0,0,0,3.55,1.07,3.16,3.16,0,0,0,1.46-.57l1.78,1.77a9.81,9.81,0,0,1,1.71,2c1,1.73-.67,3-2.24,3.46-2,.56-3.82-.35-5.7-.81a17.3,17.3,0,0,0-6.29-.35,1.17,1.17,0,0,0-1.14,1.13,1.14,1.14,0,0,0,1.14,1.13,17.73,17.73,0,0,1,7.34.75C884.16,779.84,886.59,780.06,888.79,778.73Z" transform="translate(-127.64 -129.12)"/><path class="cls-25" d="M1055,731.36a37.25,37.25,0,0,0-14.93-2.33c-1.46.08-1.47,2.35,0,2.27a35.57,35.57,0,0,1,14.33,2.25C1055.77,734.07,1056.36,731.87,1055,731.36Z" transform="translate(-127.64 -129.12)"/><path class="cls-25" d="M1167.75,706.24c.58,1.34,2.53.18,2-1.15-4.56-10.62-9.28-21.4-16-30.79-.85.37-1.56.68-2.1.94C1158.44,684.65,1163.16,695.55,1167.75,706.24Z" transform="translate(-127.64 -129.12)"/><path class="cls-25" d="M1202.35,816.12q-4.78-8.88-10.4-17.27c-3.65-5.44-7.77-10.51-11.59-15.81a35.59,35.59,0,0,1-4.53-7.8,27.71,27.71,0,0,1-1.74-9.23c-.19-6.72,1.18-13.41,2.22-20l3.84-24.33a2.34,2.34,0,0,0-1.59-2.79,2.29,2.29,0,0,0-2.79,1.59q-1.76,11.17-3.52,22.36c-1.08,6.83-2.49,13.72-2.69,20.64a33,33,0,0,0,5,19.06c3.48,5.51,7.84,10.45,11.57,15.8a205.24,205.24,0,0,1,12.32,20.08C1199.81,821,1203.73,818.69,1202.35,816.12Z" transform="translate(-127.64 -129.12)"/><path class="cls-32" d="M1277.12,565.54c-2.43-2.27-5.1-4.27-7.42-6.65a31.27,31.27,0,0,1-5.67-8.59c-2.87-6.07-4.87-12.53-8.93-18a45.39,45.39,0,0,0-14.32-12.48,53.45,53.45,0,0,0-12.36-5l-.11-.27a21.15,21.15,0,0,0-2.62-4.63,20,20,0,0,0-8.23-6.51,17.28,17.28,0,0,0-18.14,3.18,23.11,23.11,0,0,0-5.17-.95c-8.76-.57-16.83,4.26-23.45,9.49-3.45,2.73-6.64,5.8-10.18,8.41a37.31,37.31,0,0,1-5.75,3.54,57.59,57.59,0,0,0-5.86,2.85,14.87,14.87,0,0,0-3.27,2.89c-5.87,3.73-9.38,10.16-10.81,16.88-1.83,8.6-.31,17.19,1.44,25.67a125.53,125.53,0,0,1,2.46,14.14c.45,4.87.18,9.77.36,14.65a82.82,82.82,0,0,0,5.79,27.66c3.31,8.3,8,17.72,17.13,20.64,2.79.89,4-3.49,1.21-4.38-7-2.24-10.81-10-13.47-16.27a78.34,78.34,0,0,1-6-25.58c-.28-4.49-.08-9-.25-13.48a86.58,86.58,0,0,0-1.81-13.61c-1.62-8.17-3.84-16.44-3-24.84a29.91,29.91,0,0,1,1.94-8.15,42.51,42.51,0,0,0-.08,7.38c.64,8.16,3.41,15.93,7,23.26.18,3.19.08,6.38,0,9.57a106.81,106.81,0,0,0,1.29,23.56,81.08,81.08,0,0,0,6.86,21.44c2.94,5.94,7.28,11.51,13.35,14.45,6.52,3.15,13.81,3.21,20.83,2.17a129.79,129.79,0,0,0,22.27-5.81q5.61-1.89,11.1-4.12a2.51,2.51,0,0,0,1.64-1.89,185.27,185.27,0,0,0,28.55-13.69,2.07,2.07,0,0,0,1.09-1.73c2.36-1.33,4.68-2.73,6.94-4.23,11.48-7.61,23.16-18.2,23.51-33A23.4,23.4,0,0,0,1277.12,565.54Z" transform="translate(-127.64 -129.12)"/><path class="cls-27" d="M1218.37,649.22a43.22,43.22,0,0,0,7.05-1.17,32.33,32.33,0,0,0,11.69-5.21,127.6,127.6,0,0,0,10.74-9.11c2.72-2.42,5.4-4.89,8.07-7.37-10.42-17.29-22.05-43.1-22.22-43.61,0,0-39.25,16.3-32.61,30.19,5.22,10.92,12.31,29,15.1,36.3C1216.92,649.26,1217.64,649.26,1218.37,649.22Z" transform="translate(-127.64 -129.12)"/><path class="cls-18" d="M1219.27,642.17a35.24,35.24,0,0,0,11.3-9.4,30,30,0,0,0,5.9-15.48,59.86,59.86,0,0,0-1.57-18.57c-.69-3.13-1.47-6.24-2.21-9.36-.43-1.8-1-3.7-1.32-5.59-8.33,3.77-35.93,17.34-30.28,29.17,4.29,9,9.82,22.76,13.22,31.44A37.86,37.86,0,0,0,1219.27,642.17Z" transform="translate(-127.64 -129.12)"/><path class="cls-27" d="M1238.71,558.63c-8.63-3.52-12.29,2.94-13.63,6.65a1.27,1.27,0,0,1,.19.8c-.31,3.08-3.44,3.33-5.68,2-2-1.19-3.58-3.13-5.17-4.83a17.48,17.48,0,0,0-1.66-1.63l-.12-.06a9.37,9.37,0,0,1-.89-.31,10.78,10.78,0,0,0-2.34-.2c-3.16,0-6-.33-8.6-2a15.88,15.88,0,0,1-6.59-.83c-4-1.3-7.58-3.28-11.6-4.4-3.51-1-7.12-1.5-10.66-2.31a22.46,22.46,0,0,1-9.35-4,13.56,13.56,0,0,1-3.39-4.15c-.74,1-1.45,1.9-2.09,2.89a14.6,14.6,0,0,0-2.36,5.42c-.35,1.8-.52,3.62-.89,5.41.13,2.25.41,4.64.81,7.19,3.09,19.67,14.94,73.13,49.28,66.26s31.19-42.58,31.19-42.58C1244,584.8,1250.5,563.44,1238.71,558.63Z" transform="translate(-127.64 -129.12)"/><path class="cls-18" d="M1166.69,590.24a3.76,3.76,0,0,0-.27-.94,3.45,3.45,0,0,0-.82-1.36,2.35,2.35,0,0,0-.47-.36,1.69,1.69,0,0,0-.28-.12,1.25,1.25,0,0,0-.3-.12,2,2,0,0,0-.59-.07,2.8,2.8,0,0,0-.58.09,2.28,2.28,0,0,0-1,.6,2,2,0,0,0-.56,1.44,1,1,0,0,0,0,.25,1.7,1.7,0,0,0-.13.64,6.71,6.71,0,0,0,.11,1.26,3.85,3.85,0,0,0,.27.74,2.7,2.7,0,0,0,.46.66l.13.12a2.83,2.83,0,0,0,.43.32,2.33,2.33,0,0,0,.69.28,2.53,2.53,0,0,0,1.81-.22,2.19,2.19,0,0,0,1.09-1.49A4.74,4.74,0,0,0,1166.69,590.24Z" transform="translate(-127.64 -129.12)"/><path class="cls-18" d="M1199.9,577.93a3.89,3.89,0,0,0-1.47-1.71,2.29,2.29,0,0,0-2.88.5,3.47,3.47,0,0,0-.81,2.31,1.69,1.69,0,0,0-.13,1.2,9.59,9.59,0,0,0,.81,2.1,2.88,2.88,0,0,0,2.1,1.72c2.1.28,3-2.18,3-3.89A5.75,5.75,0,0,0,1199.9,577.93Z" transform="translate(-127.64 -129.12)"/><path class="cls-33" d="M1187.08,601.67a1.51,1.51,0,0,0-1-.26l-2.77.16a1.41,1.41,0,0,0-.91.53,1.4,1.4,0,0,0,.27,1.94,1.6,1.6,0,0,0,1,.26l2.77-.16a1.33,1.33,0,0,0,.91-.54,1.37,1.37,0,0,0-.27-1.93Z" transform="translate(-127.64 -129.12)"/><path class="cls-32" d="M1202.69,565.17a36.08,36.08,0,0,0-11-2.56,1.72,1.72,0,0,0-1.7,1.71,1.74,1.74,0,0,0,1.7,1.7,29.45,29.45,0,0,1,5,.79,35,35,0,0,1,5.08,1.64,1.7,1.7,0,0,0,2.09-1.18A1.76,1.76,0,0,0,1202.69,565.17Z" transform="translate(-127.64 -129.12)"/><path class="cls-32" d="M1163.49,577.84a1.77,1.77,0,0,0-1-.78,1.67,1.67,0,0,0-1.31.17,12.6,12.6,0,0,0-2,1.73,12.93,12.93,0,0,0-1.56,2.13,1.76,1.76,0,0,0-.17,1.31,1.69,1.69,0,0,0,2.09,1.19,1.74,1.74,0,0,0,1-.78,11,11,0,0,1,.67-1,10.72,10.72,0,0,1,1.62-1.61l0,0a1.82,1.82,0,0,0,.78-1A1.76,1.76,0,0,0,1163.49,577.84Z" transform="translate(-127.64 -129.12)"/><path class="cls-8" d="M1187.22,614.07l13.63-7.9s2.6,10.2-.4,11.8C1196.55,620.05,1187.22,614.07,1187.22,614.07Z" transform="translate(-127.64 -129.12)"/><path class="cls-11" d="M826.07,773.74s-2.13,8.68,6,10.54h173.07v-1.8l-156.92-.12c-5.23,0-7.25-5.21-7.14-8.62Z" transform="translate(-127.64 -129.12)"/><path class="cls-22" d="M1295.85,1069.48s-23.55,68.14-23.66,94c0,5.51,23.82,13,39,16.43,8.35,1.87,12.86,1.52,12.86,1.52s-20.53-52.92-12.42-115.48Z" transform="translate(-127.64 -129.12)"/><path class="cls-24" d="M1311.68,1066l114.93-24.69,15.7,4.08s24,67.11,26.5,90.7-143.53,45.32-144.06,45.37c-2.73.28-11.53-1.56-15.7-35.14C1304.09,1106.28,1311.68,1066,1311.68,1066Z" transform="translate(-127.64 -129.12)"/><path class="cls-25" d="M1311.68,1066s3.77,71,14.31,86.11c6.54,9.36,107-15.83,123.63-23.13,10.45-4.59,7.22-40.11,7.22-40.11s7.16,35.87,1.28,43.32-118.48,33.38-132.54,31S1308.49,1107,1311.68,1066Z" transform="translate(-127.64 -129.12)"/><path d="M1417.56,729.77l-58.81,160S1382.91,764.68,1417.56,729.77Z" transform="translate(-127.64 -129.12)"/><path class="cls-22" d="M1295.85,1069.48S1374.67,747.38,1401,729l16.52.78s-21.81,38.24-41.3,100.93S1311.68,1066,1311.68,1066Z" transform="translate(-127.64 -129.12)"/><path class="cls-8" d="M1410.13,1057.93a582.66,582.66,0,0,1-59.32,14.32q-8.47,1.57-17,2.9c-2.16.34-1.38,3.65.78,3.31a578.91,578.91,0,0,0,59.72-12.54q8.34-2.2,16.6-4.68C1413,1060.62,1412.24,1057.3,1410.13,1057.93Z" transform="translate(-127.64 -129.12)"/><path class="cls-8" d="M1435.93,1052a1.72,1.72,0,0,0-2-1.27l-13.45,4.83a1.75,1.75,0,0,0-1.26,2.05,1.71,1.71,0,0,0,2,1.27l13.45-4.84A1.74,1.74,0,0,0,1435.93,1052Z" transform="translate(-127.64 -129.12)"/></svg>